# xmcd
# Copyright (C) 1995-1998 Ti Kan
#
# Track frame offsets:
#       150
#       23148
#       49143
#       60476
#       84372
#       101476
#       113842
#       132587
#       147049
#
# Disc length: 2388 seconds
#
# Revision: 0
# Processed by: cddbd v1.5.2PL0 Copyright (c) Steve Scherf et al.
# Submitted via: CD-Transfer v1.0
#
DISCID=72095209
DTITLE=Tomasz Kamiñski 2008 - 
DYEAR=2008
DGENRE=
TTITLE0=Twoje Dary
TTITLE1=Wszystko Moje Jest Twoje
TTITLE2=Tak Chcialbym Synku
TTITLE3=Tak Blisko Jestes Wszystkich
TTITLE4=Pokoj Moj Zostawiam
TTITLE5=Ksiaze Pokoju
TTITLE6=Radosny Jestem
TTITLE7=Laudet Te Orbis Terrarum
TTITLE8=Niech Wielbi Cie Cala Ziemia
EXTD=
EXTT0=
EXTT1=
EXTT2=
EXTT3=
EXTT4=
EXTT5=
EXTT6=
EXTT7=
EXTT8=
PLAYORDER=
